<svg id="Layer_1" data-name="Layer 1" xmlns="http://www.w3.org/2000/svg" viewBox="0 0 808.86 196.68"><defs><style>.cls-1{fill:white;}.cls-2{isolation:isolate;}</style></defs><title>Artboard 1</title><path class="cls-1" d="M44.93,117.43.11,92.37,0,30.37,52.9,0l54.67,30.79V92.37L75.71,110.7l.12,48.3,40.85,23.25,40.84-22.94q.12-24.47.23-48.93L126.13,92.05v-13l44.13,24.1q-.09,31.66-.17,63.33L117,196.68,63.27,166.21l-.1-62.46L94.68,84.83V37.4L53.53,13.82,13,36.45v49L45,104Z"/><polygon class="cls-1" points="29.05 47.94 29.05 77.04 54.24 91.59 79.44 77.04 79.44 47.94 54.24 33.39 29.05 47.94"/><polygon class="cls-1" points="91.38 119.99 91.38 149.09 116.58 163.64 141.78 149.09 141.78 119.99 116.58 105.44 91.38 119.99"/><g class="cls-2"><g class="cls-2"><path class="cls-1" d="M299.6,29.66h9.09a1.57,1.57,0,0,1,1.78,1.78V152.66a1.57,1.57,0,0,1-1.78,1.78H299.6a1.58,1.58,0,0,1-1.79-1.78V97.93a.63.63,0,0,0-.71-.71H240.24a.63.63,0,0,0-.72.71v54.73a1.57,1.57,0,0,1-1.78,1.78h-9.09a1.57,1.57,0,0,1-1.78-1.78V31.44a1.57,1.57,0,0,1,1.78-1.78h9.09a1.57,1.57,0,0,1,1.78,1.78v54a.64.64,0,0,0,.72.72H297.1a.63.63,0,0,0,.71-.72v-54A1.58,1.58,0,0,1,299.6,29.66Z"/><path class="cls-1" d="M396.92,71q8.74,8.2,8.74,21.75v59.9a1.57,1.57,0,0,1-1.78,1.78h-9.09a1.58,1.58,0,0,1-1.79-1.78v-7.31a.62.62,0,0,0-.26-.54q-.27-.17-.63.18a27.74,27.74,0,0,1-11.59,8.11,43.6,43.6,0,0,1-15.86,2.77q-12.66,0-21.21-6.42t-8.56-19.61q0-13.36,9.72-21.12t27-7.76h20.68a.63.63,0,0,0,.71-.71V93.48q0-9.11-5.08-14.35t-15.77-5.26q-8.56,0-13.91,3.29a13.82,13.82,0,0,0-6.59,9.18A1.89,1.89,0,0,1,349.51,88l-9.63-1.25c-1.31-.24-1.84-.71-1.6-1.43q1.43-10,10.69-16.22t23.18-6.24Q388.18,62.81,396.92,71Zm-11.58,68.72q7.67-5.25,7.66-14.17v-13.9a.63.63,0,0,0-.71-.71H373.57q-11.76,0-18.89,4.81a15.24,15.24,0,0,0-7.13,13.37q0,7.85,5.43,11.85t14.18,4A31.31,31.31,0,0,0,385.34,139.73Z"/><path class="cls-1" d="M444.07,149.18a33.45,33.45,0,0,1-12.57-18.09q-2.31-7.84-2.31-22.11a87.89,87.89,0,0,1,2.31-21.74A32.43,32.43,0,0,1,444,69.5q9.27-6.69,22.11-6.69,13,0,22.55,6.6T501,85.81a30.55,30.55,0,0,1,1.07,5.35v.35c0,.84-.54,1.37-1.61,1.61l-8.91,1.25h-.36c-.83,0-1.37-.54-1.6-1.61l-.54-2.67a20,20,0,0,0-7.84-11.5,24.36,24.36,0,0,0-15.15-4.72q-8.93,0-14.89,4.72a21.56,21.56,0,0,0-7.75,12.57,81,81,0,0,0-1.61,18q0,11.78,1.61,18.18a21.64,21.64,0,0,0,7.75,12.75q6,4.72,14.89,4.72a25.13,25.13,0,0,0,15.06-4.54,19.23,19.23,0,0,0,7.93-11.68v-.71l.18-.71c.12-1.19.83-1.67,2.14-1.43l8.74,1.43c1.18.24,1.72.89,1.6,2l-.71,3.56a28.29,28.29,0,0,1-12.3,16.76q-9.63,6.42-22.64,6.42Q453.25,155.87,444.07,149.18Z"/><path class="cls-1" d="M524.73,152.66V31.44a1.58,1.58,0,0,1,1.79-1.78h9.09a1.57,1.57,0,0,1,1.78,1.78v72.91a.58.58,0,0,0,.27.53c.18.12.38.07.62-.17l37.79-39.58a3,3,0,0,1,2.14-.89h10.7a1.44,1.44,0,0,1,1.42.71,1.17,1.17,0,0,1-.35,1.43L567.16,91.69a.8.8,0,0,0-.18.89l27.27,59.72.18.71c0,1-.53,1.43-1.6,1.43H583.2a2,2,0,0,1-2-1.43l-23-52c-.24-.47-.54-.53-.89-.18l-19.61,20.68a1.21,1.21,0,0,0-.36.89v30.31a1.57,1.57,0,0,1-1.78,1.78h-9.09A1.58,1.58,0,0,1,524.73,152.66Z"/></g><g class="cls-2"><path class="cls-1" d="M632.57,151a35.85,35.85,0,0,1-14.71-13.81,39.61,39.61,0,0,1-5.25-20.5V67.45A39.64,39.64,0,0,1,617.86,47a35.93,35.93,0,0,1,14.71-13.82,47.07,47.07,0,0,1,21.93-4.9A47.9,47.9,0,0,1,676.33,33,35.17,35.17,0,0,1,691,46.5,37.4,37.4,0,0,1,696.21,66v2.32a1.57,1.57,0,0,1-1.78,1.78h-9.1a1.57,1.57,0,0,1-1.78-1.78V66.2q0-11.94-7.93-19.43T654.5,39.28q-13.2,0-21.22,7.67t-8,20.14V117q0,12.48,8.2,20.14T655,144.81q13,0,20.77-7.13t7.75-19.07V102.39a.63.63,0,0,0-.71-.71H656.63a1.58,1.58,0,0,1-1.78-1.79V92.41a1.58,1.58,0,0,1,1.78-1.79h37.8a1.58,1.58,0,0,1,1.78,1.79v23q0,19.08-11.32,29.77t-30.39,10.7A47,47,0,0,1,632.57,151Z"/></g><g class="cls-2"><path class="cls-1" d="M801.21,31.44v7.67a1.58,1.58,0,0,1-1.79,1.78H764.48a.63.63,0,0,0-.71.71V152.66a1.57,1.57,0,0,1-1.78,1.78H752.9a1.58,1.58,0,0,1-1.79-1.78V41.6a.63.63,0,0,0-.71-.71H716.89a1.57,1.57,0,0,1-1.78-1.78V31.44a1.57,1.57,0,0,1,1.78-1.78h82.53A1.58,1.58,0,0,1,801.21,31.44Z"/></g></g></svg>
