<svg id="Layer_1" data-name="Layer 1" xmlns="http://www.w3.org/2000/svg" viewBox="0 0 87 94.1"><defs><style>.cls-1{fill:#f4ecf5;}</style></defs><title>A</title><path class="cls-1" d="M57.6,72.5H28.2C27.1,76.1,26,79.7,25,83.2s-1.7,6.6-2.4,9.3c-1.3.4-2.7.8-4.1,1.1a24.41,24.41,0,0,1-5.1.5c-4.4,0-7.8-.8-10.1-2.3A8,8,0,0,1,0,85a14,14,0,0,1,.6-4.1c.4-1.3.8-2.8,1.4-4.5.7-2.7,1.7-6.1,3-10.1L9.2,53.4c1.6-4.7,3.3-9.5,5-14.4s3.4-9.6,5-14,3.1-8.6,4.4-12.3S26,6,26.9,3.8a27.07,27.07,0,0,1,6.9-2.6A39.26,39.26,0,0,1,43.3,0,33.33,33.33,0,0,1,55.2,2C58.7,3.2,61,5.3,62,8.2c1.9,5.3,4,11.5,6.2,18.5s4.4,14.2,6.6,21.6S79.3,63,81.4,70.2s4,13.7,5.6,19.4a11.7,11.7,0,0,1-5,3.2A21.85,21.85,0,0,1,74.3,94c-4.3,0-7.4-.8-9.2-2.3a13.72,13.72,0,0,1-3.8-7.1ZM43.1,21.1c-1.4,4.5-3.2,9.7-5.3,15.5s-3.9,11.6-5.7,17.6H53.6c-1.7-6.3-3.5-12.3-5.3-18s-3.2-10.8-4.4-15h-.8Z"/></svg>