<?xml version="1.0" encoding="utf-8"?>
<!-- Generator: Adobe Illustrator 24.0.2, SVG Export Plug-In . SVG Version: 6.00 Build 0)  -->
<svg version="1.1" id="Layer_1" xmlns="http://www.w3.org/2000/svg" xmlns:xlink="http://www.w3.org/1999/xlink" x="0px" y="0px"
	 viewBox="0 0 1626 512" style="enable-background:new 0 0 1626 512;" xml:space="preserve">
<style type="text/css">
	.st0{fill:#F4ECF5;}
</style>
<image style="overflow:visible;enable-background:new    ;" width="3" height="2" xlink:href="409EDC0C.png"  transform="matrix(1 0 0 1 1091 -490)">
</image>
<path class="st0" d="M1585.9,267.4h-29.4c-1.1,3.6-2.2,7.2-3.2,10.7c-0.9,3.5-1.7,6.6-2.4,9.3c-1.3,0.4-2.7,0.8-4.1,1.1
	c-1.4,0.3-3.1,0.5-5.1,0.5c-4.4,0-7.8-0.8-10.1-2.3c-2.2-1.6-3.3-3.9-3.3-6.8c0-1.4,0.2-2.8,0.6-4.1c0.4-1.3,0.8-2.8,1.4-4.5
	c0.7-2.7,1.7-6.1,3-10.1c1.3-4,2.7-8.3,4.2-12.9c1.6-4.7,3.3-9.5,5-14.4c1.7-4.9,3.4-9.6,5-14c1.6-4.5,3.1-8.6,4.4-12.3
	c1.3-3.7,2.4-6.7,3.3-8.9c1.5-0.9,3.8-1.8,6.9-2.6c3.2-0.8,6.4-1.2,9.5-1.2c4.5,0,8.5,0.7,11.9,2c3.5,1.2,5.8,3.3,6.8,6.2
	c1.9,5.3,4,11.5,6.2,18.5s4.4,14.2,6.6,21.6c2.3,7.4,4.5,14.7,6.6,21.9c2.1,7.2,4,13.7,5.6,19.4c-1.1,1.3-2.8,2.4-5,3.2
	c-2.1,0.8-4.7,1.2-7.7,1.2c-4.3,0-7.4-0.8-9.2-2.3c-1.7-1.5-3-3.9-3.8-7.1L1585.9,267.4z M1571.4,216c-1.4,4.5-3.2,9.7-5.3,15.5
	c-2,5.7-3.9,11.6-5.7,17.6h21.5c-1.7-6.3-3.5-12.3-5.3-18c-1.7-5.8-3.2-10.8-4.4-15H1571.4z"/>
<path class="st0" d="M1308.9,186.9H55.6c-26.2,0-47.5,21.3-47.5,47.5v30.3c0,26.2,21.3,47.5,47.5,47.5h1253.3
	c26.2,0,47.5-21.3,47.5-47.5v-30.3C1356.4,208.2,1335.1,186.9,1308.9,186.9z"/>
<path class="st0" d="M1392,253.6l-41.9-30.6l0,61.3L1392,253.6z"/>
</svg>
