<?xml version="1.0" encoding="utf-8"?>
<!-- Generator: Adobe Illustrator 24.0.2, SVG Export Plug-In . SVG Version: 6.00 Build 0)  -->
<svg version="1.1" id="Layer_1" xmlns="http://www.w3.org/2000/svg" xmlns:xlink="http://www.w3.org/1999/xlink" x="0px" y="0px"
	 viewBox="0 0 1626 512" style="enable-background:new 0 0 1626 512;" xml:space="preserve">
<style type="text/css">
	.st0{fill:#E1BFF2;}
</style>
<path class="st0" d="M104.2,252.9c0,10.2-2,18.7-5.9,25.7c-3.9,6.9-9.1,12.3-15.7,16c4.7,2.2,9.3,4,13.8,5.5
	c4.5,1.6,8.8,3.1,12.8,4.4c0.1,0.6,0.1,1.1,0.1,1.5c0,0.5,0,0.9,0,1.3c0,4.9-1.3,8.6-3.9,10.8c-2.5,2.3-5.9,3.4-10.2,3.4
	c-4.3,0-8.8-1.3-13.8-3.9c-4.8-2.5-9.9-6.1-15.3-10.8l-7.4-6.5h-0.7c-6.6,0-12.8-1-18.4-3c-5.6-2.1-10.5-5.1-14.7-9
	c-4.1-4.1-7.3-9-9.6-15c-2.3-5.9-3.4-12.8-3.4-20.5c0-7.7,1.2-14.5,3.6-20.3c2.4-5.9,5.6-10.9,9.8-14.8c4.2-4.1,9-7.1,14.5-9
	c5.6-2.1,11.7-3.1,18.2-3.1s12.6,1,18.2,3.1c5.6,2,10.5,5,14.7,9c4.2,4,7.4,8.9,9.8,14.8C103,238.4,104.2,245.2,104.2,252.9z
	 M80.1,252.9c0-9.4-2-16.5-6.1-21.2c-4-4.8-9.3-7.3-16.2-7.3c-6.7,0-12.1,2.4-16.2,7.1s-6.1,11.9-6.1,21.4c0,9.6,2,16.8,5.9,21.5
	c4.1,4.7,9.5,7.1,16.3,7.1s12.2-2.4,16.2-7.1C78.1,269.7,80.1,262.5,80.1,252.9z"/>
<path class="st0" d="M325.4,198.1h1239c25.9,0,47,21,47,47v30c0,25.9-21,47-47,47h-1239c-25.9,0-47-21-47-47v-30
	C278.5,219.1,299.5,198.1,325.4,198.1z"/>
<path class="st0" d="M243.3,264.1l41.4-30.3l0,60.6L243.3,264.1z"/>
</svg>
