<?xml version="1.0" encoding="utf-8"?>
<!-- Generator: Adobe Illustrator 24.0.2, SVG Export Plug-In . SVG Version: 6.00 Build 0)  -->
<svg version="1.1" xmlns="http://www.w3.org/2000/svg" xmlns:xlink="http://www.w3.org/1999/xlink" x="0px" y="0px"
	 viewBox="0 0 302.64 344.79" style="enable-background:new 0 0 302.64 344.79;" xml:space="preserve">
<style type="text/css">
	.st0{fill:#DD3424;stroke:#000000;stroke-width:3;stroke-miterlimit:10;}
	.st1{opacity:0.9;fill:none;stroke:#000000;stroke-width:2;stroke-miterlimit:10;}
	.st2{opacity:0.9;stroke:#000000;stroke-width:2;stroke-miterlimit:10;}
	.st3{opacity:0.9;}
	.st4{fill:none;stroke:#000000;stroke-width:2;stroke-miterlimit:10;}
</style>
<g id="outline">
	<path class="st0" d="M236.47,56.66c35.95-9.19,54,2.9,54,2.9c5.05-0.95,9.08-4.64,10.3-9.41c1.56-6.1-2.27-10.88-2.68-11.37
		c-10.12-3.76-26.06-7.53-45.35-6.01C242.01,33.61,236.06,36,236.06,36c-20.34,2.28-32.27,17.81-32.27,17.81
		c-3.02,2.83-6.85,6.87-10.63,12.24c-0.66,0.93-3.67,5.25-6.75,11.51c-2.24,4.55-3.57,8.54-6.23,16.53c0,0-1.86,5.6-1.97,9.47
		c-0.05,2-0.03,2.69-0.03,2.69c0.04,0.99,0.11,1.37,0.03,2.07c-0.1,1.02-0.41,1.77-0.59,2.21c-0.75,1.82-2,3.07-2.77,3.73
		c-1.82,0.11-4.47,0.1-7.57-0.52c-2.86-0.57-4.77-1.4-7.92-2.77c-4.92-2.13-7.38-3.2-9.49-5.39c-0.07-0.08-1.22-1.4-3.52-4.04
		c-0.78-1.04-1.89-2.64-2.92-4.74c-1.14-2.31-4.06-8.4-2.89-15.95c0.13-0.83,0.72-4.35,2.21-6.92c4.11-7.08,16.7-9.68,30.96-6.68
		c18.86-21.44,23.23-28.53,22.08-29.74c-0.25-0.26-0.8-0.29-2.24-1.05c-1.75-0.93-3.03-2-3.91-2.83c-5.02-3.83-8.36-4.65-10.53-4.65
		c-0.59,0-1.74,0.06-2.69-0.69c-2-1.59-1.5-5.56-1.59-5.56c-0.05,0-0.04,1.17,0.02,1.17c0.07,0,0.14-1.58,0.2-2.33
		c0.29-3.24,2.21-5.9,3.92-8.55c0.83-1.29,1.93-2.43,1.4-3.95c-0.41-1.17-1.5-2.25-2.3-3.16c-1.55-1.76-3.55-3.1-5.82-3.74
		c-2.07-0.58-7.61-1.62-7.52,1.53c0.11,3.87-0.48,6.86-2.27,10.33c-1.59,3.1-3.62,5.98-4.98,9.2c-2.02,4.78-11.3,1.52-12.02,1.29
		c-0.02-0.01-1.05-0.34-1.07-0.35c-0.28-0.79-0.57-1.57-0.85-2.36c-1.81-4.99-3.34-10.08-5.32-15.02c-0.91-2.29-1.19-3.05-3.63-3.43
		c-2.14-0.33-4.35-0.13-6.38,0.65c-1.5,0.57-2.89,1.42-4.02,2.58c-1.38,1.43-3.27,2.97-2.17,5.13c2.25,4.39,4.72,8.46,5.52,13.45
		c0.76,3.86,1.11,8.7-1.86,11.76c-0.59,0.57-0.43,0.1-3.01,1.68c-3.02,1.86-5.89,4.2-11.65,9.02c-0.88,0.74-2.54,2.18-4.23,4.4
		c-1.31,1.73-2.15,3.28-2.74,4.47c-0.59,1.18-2.41,4.89-4.67,12.56c-1.01,3.44-1.53,5.8-2.57,10.53c-0.23,1.04-0.95,4.38-0.87,7.57
		c0.03,1.33,0.05,1.99,0.21,2.84c0.17,0.9,0.43,1.71,0.57,3.19c0.01,0.06,0.03,0.36,0.06,0.73c0.07,1.2,0.02,2.3-0.12,3.62
		c-0.21,2.11-0.56,4.02-0.79,5.16c-12.37,5.43-13.07-2.52-13.07-2.52s-1.29-15.34-2.16-24.41s-2.12-16.93-4.3-26.95
		s-4.6-10.78-4.6-10.78c-0.18-0.23-2.84-3.56-7.13-3.18c-3.11,0.28-5.82,2.4-6.91,5.42c1.73,5.83,3.05,13.47,5.26,22.19
		c1.55,6.09,3.31,20.77,2.91,25.44c-0.41,4.67-0.41,19.06-1.23,28.4c-0.81,9.34-14.33,4.01-14.33,4.01L15.74,94.73
		c-1.18,0.16-4.1,0.71-6.7,3.08c-3.8,3.45-4.01,8.1-4.04,8.99c6.31,6.04,11.42,10.76,15.42,13.66c11.72,8.49,1.25,7.86,1.25,7.86
		L4,129.41c-0.48,0.6-2.92,3.72-2.44,8.16c0.55,5.11,4.5,7.77,5.04,8.12c4.61,0.03,9.22,0.06,13.83,0.1c0,0,30.11-2.5,24.54,5.87
		c-5.57,8.37,0.58,50.56,1.97,52.07c1.39,1.51,7.78,23.51,15.86,30.86c8.08,7.35,2.71,13.38,2.71,13.38
		c-3.02,4.16-19.05,15.28-18.49,24.83c0.19,3.18,2.18,5.6,3.08,6.7c3.02,3.68,7.04,4.78,8.57,5.12
		c3.82-10.15,13.06-18.28,21.8-25.79c6.58-5.65,79.43,93.83,106.61,83.74s46.77-46.03,46.77-46.03
		c21.93-21.34,38.37-73.47,39.99-77.76c1.62-4.29,8.75-35.36,4.29-52.49s-5.07-10.13-10.27-28.3c-5.2-18.17,19.66-17.53,19.66-17.53
		c2.43-1.14,3.21-3.75,2.33-5.26c-0.6-1.02-1.96-1.57-3.4-1.47c-18.32-3.63-22.59-7.37-23.04-10.28
		c-0.93-6.01,10.3-11.86,10.3-11.86c1.55-2.02,1.68-4.72,0.37-6.68c-1.58-2.36-4.46-2.42-4.7-2.42c-0.76,1.2-3.88,6.7-10.3,7.61
		c-4.22,0.6-8.07-0.08-8.07-0.08c-8.51,0.78-2.73-9.93-21.26-6.97s-17.2,40.16-17.2,40.16s-8.71,3.12-9.81-0.16
		c-1.1-3.28-3.56-11.52,4.47-36.98S236.47,56.66,236.47,56.66z"/>
	<path class="st1" d="M120.12,7.97"/>
	<path class="st1" d="M62.15,160.15c1.23-0.28,2.48,0.23,3.08,1.24c0.53,0.89,0.49,2.08-0.11,2.9c-0.12,0.17-0.43,0.59-0.98,0.76
		c-1.25,0.39-3.16-0.77-3.31-2.38C60.69,161.2,62.08,160.2,62.15,160.15z"/>
	<path class="st1" d="M73.84,150.48c1.23-0.28,2.48,0.23,3.08,1.24c0.53,0.89,0.49,2.08-0.11,2.9c-0.12,0.17-0.43,0.59-0.98,0.76
		c-1.25,0.39-3.16-0.77-3.31-2.38C72.38,151.53,73.77,150.53,73.84,150.48z"/>
	<path class="st2" d="M115.72,149.56c1.23-0.28,2.48,0.23,3.08,1.24c0.53,0.89,0.49,2.08-0.11,2.9c-0.12,0.17-0.43,0.59-0.98,0.76
		c-1.25,0.39-3.16-0.77-3.31-2.38C114.26,150.61,115.65,149.61,115.72,149.56z"/>
	<path class="st2" d="M104.35,157.71c1.23-0.28,2.48,0.23,3.08,1.24c0.53,0.89,0.49,2.08-0.11,2.9c-0.12,0.17-0.43,0.59-0.98,0.76
		c-1.25,0.39-3.16-0.77-3.31-2.38C102.89,158.76,104.28,157.76,104.35,157.71z"/>
	<path class="st1" d="M125.78,158.32c1.23-0.28,2.48,0.23,3.08,1.24c0.53,0.89,0.49,2.08-0.11,2.9c-0.12,0.17-0.43,0.59-0.98,0.76
		c-1.25,0.39-3.16-0.77-3.31-2.38C124.32,159.37,125.71,158.37,125.78,158.32z"/>
	<path class="st1" d="M125.52,167.57c1.23-0.28,2.48,0.23,3.08,1.24c0.53,0.89,0.49,2.08-0.11,2.9c-0.12,0.17-0.43,0.59-0.98,0.76
		c-1.25,0.39-3.16-0.77-3.31-2.38C124.06,168.62,125.45,167.62,125.52,167.57z"/>
	<path class="st1" d="M85.07,166.54c1.23-0.28,2.48,0.23,3.08,1.24c0.53,0.89,0.49,2.08-0.11,2.9c-0.12,0.17-0.43,0.59-0.98,0.76
		c-1.25,0.39-3.16-0.77-3.31-2.38C83.6,167.59,84.99,166.59,85.07,166.54z"/>
	<path class="st1" d="M80.72,186.23c1.23-0.28,2.48,0.23,3.08,1.24c0.53,0.89,0.49,2.08-0.11,2.9c-0.12,0.17-0.43,0.59-0.98,0.76
		c-1.25,0.39-3.16-0.77-3.31-2.38C79.26,187.28,80.65,186.28,80.72,186.23z"/>
	<path class="st1" d="M83.16,197.93c1.23-0.28,2.48,0.23,3.08,1.24c0.53,0.89,0.49,2.08-0.11,2.9c-0.12,0.17-0.43,0.59-0.98,0.76
		c-1.25,0.39-3.16-0.77-3.31-2.38C81.7,198.98,83.09,197.98,83.16,197.93z"/>
	<path class="st1" d="M61.21,183.01c1.23-0.28,2.48,0.23,3.08,1.24c0.53,0.89,0.49,2.08-0.11,2.9c-0.12,0.17-0.43,0.59-0.98,0.76
		c-1.25,0.39-3.16-0.77-3.31-2.38C59.75,184.06,61.14,183.06,61.21,183.01z"/>
	<path class="st1" d="M77.83,211.44c1.23-0.28,2.48,0.23,3.08,1.24c0.53,0.89,0.49,2.08-0.11,2.9c-0.12,0.17-0.43,0.59-0.98,0.76
		c-1.25,0.39-3.16-0.77-3.31-2.38C76.37,212.49,77.76,211.49,77.83,211.44z"/>
	<path class="st1" d="M135.43,208.01c1.23-0.28,2.48,0.23,3.08,1.24c0.53,0.89,0.49,2.08-0.11,2.9c-0.12,0.17-0.43,0.59-0.98,0.76
		c-1.25,0.39-3.16-0.77-3.31-2.38C133.97,209.06,135.36,208.06,135.43,208.01z"/>
	<path class="st1" d="M93.25,225.1c1.23-0.28,2.48,0.23,3.08,1.24c0.53,0.89,0.49,2.08-0.11,2.9c-0.12,0.17-0.43,0.59-0.98,0.76
		c-1.25,0.39-3.16-0.77-3.31-2.38C91.79,226.15,93.18,225.15,93.25,225.1z"/>
	<path class="st1" d="M83.39,239.06c1.23-0.28,2.48,0.23,3.08,1.24c0.53,0.89,0.49,2.08-0.11,2.9c-0.12,0.17-0.43,0.59-0.98,0.76
		c-1.25,0.39-3.16-0.77-3.31-2.38C81.93,240.12,83.32,239.11,83.39,239.06z"/>
	<path class="st1" d="M203.36,211.3c1.23-0.28,2.48,0.23,3.08,1.24c0.53,0.89,0.49,2.08-0.11,2.9c-0.12,0.17-0.43,0.59-0.98,0.76
		c-1.25,0.39-3.16-0.77-3.31-2.38C201.9,212.35,203.29,211.35,203.36,211.3z"/>
	<path class="st1" d="M233.23,203.66c1.23-0.28,2.48,0.23,3.08,1.24c0.53,0.89,0.49,2.08-0.11,2.9c-0.12,0.17-0.43,0.59-0.98,0.76
		c-1.25,0.39-3.16-0.77-3.31-2.38C231.77,204.71,233.16,203.71,233.23,203.66z"/>
	<path class="st1" d="M233.51,216.28c1.23-0.28,2.48,0.23,3.08,1.24c0.53,0.89,0.49,2.08-0.11,2.9c-0.12,0.17-0.43,0.59-0.98,0.76
		c-1.25,0.39-3.16-0.77-3.31-2.38C232.05,217.33,233.44,216.33,233.51,216.28z"/>
	<path class="st1" d="M261.78,209.47c1.23-0.28,2.48,0.23,3.08,1.24c0.53,0.89,0.49,2.08-0.11,2.9c-0.12,0.17-0.43,0.59-0.98,0.76
		c-1.25,0.39-3.16-0.77-3.31-2.38C260.32,210.52,261.71,209.52,261.78,209.47z"/>
	<path class="st2" d="M164.7,158.75c1.23-0.28,2.48,0.23,3.08,1.24c0.53,0.89,0.49,2.08-0.11,2.9c-0.12,0.17-0.43,0.59-0.98,0.76
		c-1.25,0.39-3.16-0.77-3.31-2.38C163.24,159.8,164.63,158.8,164.7,158.75z"/>
	<path class="st2" d="M171.24,145.62c1.23-0.28,2.48,0.23,3.08,1.24c0.53,0.89,0.49,2.08-0.11,2.9c-0.12,0.17-0.43,0.59-0.98,0.76
		c-1.25,0.39-3.16-0.77-3.31-2.38C169.78,146.67,171.17,145.67,171.24,145.62z"/>
	<path class="st2" d="M106.93,200.77c1.23-0.28,2.48,0.23,3.08,1.24c0.53,0.89,0.49,2.08-0.11,2.9c-0.12,0.17-0.43,0.59-0.98,0.76
		c-1.25,0.39-3.16-0.77-3.31-2.38C105.47,201.82,106.86,200.82,106.93,200.77z"/>
	<path class="st2" d="M95.5,190.51c1.23-0.28,2.48,0.23,3.08,1.24c0.53,0.89,0.49,2.08-0.11,2.9c-0.12,0.17-0.43,0.59-0.98,0.76
		c-1.25,0.39-3.16-0.77-3.31-2.38C94.04,191.56,95.43,190.56,95.5,190.51z"/>
	<path class="st2" d="M69.26,188.36c1.23-0.28,2.48,0.23,3.08,1.24c0.53,0.89,0.49,2.08-0.11,2.9c-0.12,0.17-0.43,0.59-0.98,0.76
		c-1.25,0.39-3.16-0.77-3.31-2.38C67.8,189.41,69.19,188.41,69.26,188.36z"/>
	<path class="st2" d="M72.34,175.2c1.23-0.28,2.48,0.23,3.08,1.24c0.53,0.89,0.49,2.08-0.11,2.9c-0.12,0.17-0.43,0.59-0.98,0.76
		c-1.25,0.39-3.16-0.77-3.31-2.38C70.88,176.25,72.27,175.25,72.34,175.2z"/>
	<path class="st2" d="M84.67,216.41c1.23-0.28,2.48,0.23,3.08,1.24c0.53,0.89,0.49,2.08-0.11,2.9c-0.12,0.17-0.43,0.59-0.98,0.76
		c-1.25,0.39-3.16-0.77-3.31-2.38C83.21,217.46,84.6,216.46,84.67,216.41z"/>
	<path class="st2" d="M57.62,171.38c1.23-0.28,2.48,0.23,3.08,1.24c0.53,0.89,0.49,2.08-0.11,2.9c-0.12,0.17-0.43,0.59-0.98,0.76
		c-1.25,0.39-3.16-0.77-3.31-2.38C56.16,172.43,57.55,171.43,57.62,171.38z"/>
	<path class="st2" d="M69.25,219.03c1.23-0.28,2.48,0.23,3.08,1.24c0.53,0.89,0.49,2.08-0.11,2.9c-0.12,0.17-0.43,0.59-0.98,0.76
		c-1.25,0.39-3.16-0.77-3.31-2.38C67.79,220.08,69.18,219.08,69.25,219.03z"/>
	<path class="st2" d="M173.82,127.52c1.23-0.28,2.48,0.23,3.08,1.24c0.53,0.89,0.49,2.08-0.11,2.9c-0.12,0.17-0.43,0.59-0.98,0.76
		c-1.25,0.39-3.16-0.77-3.31-2.38C172.36,128.57,173.75,127.57,173.82,127.52z"/>
	<path class="st2" d="M187.08,102.38c1.23-0.28,2.48,0.23,3.08,1.24c0.53,0.89,0.49,2.08-0.11,2.9c-0.12,0.17-0.43,0.59-0.98,0.76
		c-1.25,0.39-3.16-0.77-3.31-2.38C185.62,103.43,187.01,102.43,187.08,102.38z"/>
	<path class="st2" d="M198.19,125.17c1.23-0.28,2.48,0.23,3.08,1.24c0.53,0.89,0.49,2.08-0.11,2.9c-0.12,0.17-0.43,0.59-0.98,0.76
		c-1.25,0.39-3.16-0.77-3.31-2.38C196.73,126.22,198.12,125.21,198.19,125.17z"/>
	<path class="st2" d="M208.27,141.4c1.23-0.28,2.48,0.23,3.08,1.24c0.53,0.89,0.49,2.08-0.11,2.9c-0.12,0.17-0.43,0.59-0.98,0.76
		c-1.25,0.39-3.16-0.77-3.31-2.38C206.81,142.45,208.2,141.45,208.27,141.4z"/>
	<path class="st2" d="M221.67,135.24c1.23-0.28,2.48,0.23,3.08,1.24c0.53,0.89,0.49,2.08-0.11,2.9c-0.12,0.17-0.43,0.59-0.98,0.76
		c-1.25,0.39-3.16-0.77-3.31-2.38C220.21,136.29,221.6,135.29,221.67,135.24z"/>
	<path class="st2" d="M206.4,154.94c1.23-0.28,2.48,0.23,3.08,1.24c0.53,0.89,0.49,2.08-0.11,2.9c-0.12,0.17-0.43,0.59-0.98,0.76
		c-1.25,0.39-3.16-0.77-3.31-2.38C204.94,155.99,206.33,154.99,206.4,154.94z"/>
	<path class="st2" d="M234.66,147.56c1.7-0.39,3.42,0.32,4.24,1.7c0.73,1.23,0.67,2.87-0.16,3.99c-0.17,0.23-0.6,0.82-1.35,1.05
		c-1.73,0.54-4.36-1.06-4.56-3.28C232.64,149.01,234.56,147.63,234.66,147.56z"/>
	<path class="st2" d="M211.03,187.59c1.23-0.28,2.48,0.23,3.08,1.24c0.53,0.89,0.49,2.08-0.11,2.9c-0.12,0.17-0.43,0.59-0.98,0.76
		c-1.25,0.39-3.16-0.77-3.31-2.38C209.57,188.64,210.96,187.64,211.03,187.59z"/>
	<path class="st2" d="M249.48,190.67c1.01-0.23,2.04,0.19,2.53,1.02c0.43,0.73,0.4,1.71-0.09,2.38c-0.1,0.14-0.36,0.49-0.8,0.62
		c-1.03,0.32-2.6-0.63-2.72-1.96C248.28,191.53,249.42,190.71,249.48,190.67z"/>
	<path class="st2" d="M211.83,225.1c1.23-0.28,2.48,0.23,3.08,1.24c0.53,0.89,0.49,2.08-0.11,2.9c-0.12,0.17-0.43,0.59-0.98,0.76
		c-1.25,0.39-3.16-0.77-3.31-2.38C210.37,226.15,211.76,225.15,211.83,225.1z"/>
	<path class="st2" d="M257.04,241.49c1.23-0.28,2.48,0.23,3.08,1.24c0.53,0.89,0.49,2.08-0.11,2.9c-0.12,0.17-0.43,0.59-0.98,0.76
		c-1.25,0.39-3.16-0.77-3.31-2.38C255.58,242.54,256.97,241.54,257.04,241.49z"/>
	<path class="st2" d="M220.09,273.28c1.23-0.28,2.48,0.23,3.08,1.24c0.53,0.89,0.49,2.08-0.11,2.9c-0.12,0.17-0.43,0.59-0.98,0.76
		c-1.25,0.39-3.16-0.77-3.31-2.38C218.62,274.34,220.01,273.33,220.09,273.28z"/>
	<path class="st2" d="M221.23,284.05c1.23-0.28,2.48,0.23,3.08,1.24c0.53,0.89,0.49,2.08-0.11,2.9c-0.12,0.17-0.43,0.59-0.98,0.76
		c-1.25,0.39-3.16-0.77-3.31-2.38C219.77,285.1,221.16,284.1,221.23,284.05z"/>
	<g class="st3">
		<path class="st4" d="M77.06,152.59l31.84-5.08c1.63-0.26,3.95,0.45,5.15,1.58l2.54,2.38"/>
	</g>
	<g class="st3">
		<path class="st4" d="M128.68,162.21l2.54,2.38c1.21,1.13,3.52,1.84,5.15,1.58l29.04-4.63"/>
	</g>
	<g class="st3">
		<path class="st4" d="M172.87,150.55l1.32,8.26c0.26,1.63-0.37,4.02-1.4,5.3l-1.53,1.91c-1.03,1.29-3.21,2.55-4.84,2.81
			l-32.81,5.23c-1.63,0.26-3.69-0.06-4.59-0.71c-0.89-0.65-1.63-1.18-1.63-1.18"/>
	</g>
	<g class="st3">
		<path class="st4" d="M65.4,162.51l32.97-5.26c1.63-0.26,3.42-0.03,3.98,0.52c0.56,0.54,1.02,0.99,1.02,0.99"/>
	</g>
	<g class="st3">
		<path class="st4" d="M88.26,168.65l20.05-3.2c1.63-0.26,3.94,0.46,5.13,1.6l12.66,12.13c1.19,1.14,3.5,1.86,5.13,1.6l42.35-6.75
			c1.63-0.26,3.64-1.64,4.47-3.06l1.05-1.8c0.83-1.43,1.3-3.93,1.04-5.55l-4.99-31.28"/>
	</g>
	<g class="st3">
		<path class="st4" d="M81.77,174.87l2.34,1.95c1.27,1.06,3.64,1.71,5.27,1.45l17.65-2.81c1.63-0.26,3.97,0.42,5.2,1.52l13.63,12.12
			c1.23,1.1,3.57,1.78,5.2,1.52l50.21-8.01c1.63-0.26,3.62-1.65,4.42-3.09l2-3.6c0.8-1.44,1.25-3.95,0.99-5.58l-8.45-53.02
			c-0.26-1.63,0.4-3.99,1.47-5.25l4.84-5.7"/>
	</g>
	<g class="st3">
		<path class="st4" d="M197.69,129.33l-3.89,4.9c-1.03,1.29-1.65,3.68-1.39,5.31l5.95,37.3c0.26,1.63-0.25,4.1-1.13,5.5l-3.69,5.82
			c-0.88,1.39-2.94,2.75-4.57,3.01l-59.76,9.53c-1.63,0.26-4.02-0.37-5.31-1.4l-15.76-12.57c-1.29-1.03-3.68-1.66-5.31-1.4
			l-18.37,2.93"/>
	</g>
	<g class="st3">
		<path class="st4" d="M71.37,178.25l-15.56,2.48c-1.63,0.26-3.96-0.44-5.17-1.56l-7.91-7.29"/>
	</g>
	<g class="st3">
		<path class="st4" d="M42.68,164.41l7.56,7.82c1.15,1.19,3.35,1.95,4.89,1.71c1.54-0.25,2.81-0.45,2.81-0.45"/>
	</g>
	<g class="st3">
		<path class="st4" d="M43.59,180.95l8.07,4.35c1.45,0.78,3.9,1.22,5.45,0.98s2.81-0.45,2.81-0.45"/>
	</g>
	<g class="st3">
		<path class="st4" d="M45.2,191.06l6.16,1.76c1.59,0.45,4.22,0.61,5.85,0.35l11.07-1.77"/>
	</g>
	<g class="st3">
		<line class="st4" x1="46.16" y1="200.69" x2="94.44" y2="192.99"/>
	</g>
	<g class="st3">
		<path class="st4" d="M49.28,209.4l4.27-2.86c1.37-0.92,3.83-1.88,5.45-2.14l22.86-3.65"/>
	</g>
	<g class="st3">
		<path class="st4" d="M52.22,217l3.84-3.97c1.15-1.19,3.42-2.37,5.05-2.63l44.75-7.14"/>
	</g>
	<g class="st3">
		<path class="st4" d="M54.89,222.9l2.49-3.43c0.97-1.34,3.09-2.64,4.72-2.9l14.44-2.3"/>
	</g>
	<g class="st3">
		<path class="st4" d="M57.38,227.69c0,0,0.62-1,1.37-2.23c0.75-1.23,2.7-2.45,4.33-2.71l4.9-0.78"/>
	</g>
	<g class="st3">
		<path class="st4" d="M109.66,208.99l13.07,9.05c1.36,0.94,3.8,1.5,5.43,1.24l86.7-13.82c1.63-0.26,3.75,0.62,4.71,1.97l3.91,5.46
			c0.96,1.34,1.96,3.77,2.22,5.4l2.9,18.21c0.26,1.63,1.26,4.06,2.22,5.4l2.43,3.39c0.96,1.34,3.08,2.23,4.71,1.97l18.37-2.93"/>
	</g>
	<g class="st3">
		<path class="st4" d="M236.4,220.44l2.14,2.31c1.12,1.21,3.37,1.99,5,1.73l29.6-4.72"/>
	</g>
	<g class="st3">
		<line class="st4" x1="264.87" y1="211.29" x2="276.1" y2="209.5"/>
	</g>
	<g class="st3">
		<line class="st4" x1="236.4" y1="206.05" x2="277.38" y2="199.51"/>
	</g>
	<g class="st3">
		<line class="st4" x1="252.67" y1="192.52" x2="279.05" y2="188.31"/>
	</g>
	<g class="st3">
		<path class="st4" d="M214.01,188.32l18.7-19.02c1.16-1.18,3.44-2.35,5.07-2.61l38.58-6.15"/>
	</g>
	<g class="st3">
		<path class="st4" d="M138.62,210.13l87.42-13.94c1.63-0.26,3.9-1.45,5.04-2.64l14.11-14.7c1.14-1.19,3.41-2.38,5.04-2.64
			l29.04-4.63"/>
	</g>
	<g class="st3">
		<path class="st4" d="M209.08,157.44l16.76,3.7c1.61,0.36,4.26,0.43,5.89,0.17l41.95-6.69"/>
	</g>
	<g class="st3">
		<path class="st4" d="M238.21,148.77l2.96-4.08c0.97-1.34,3.09-2.64,4.72-2.9l21.18-3.38"/>
	</g>
	<g class="st3">
		<line class="st4" x1="224.83" y1="137.09" x2="267.5" y2="130.28"/>
	</g>
	<g class="st3">
		<path class="st4" d="M210.6,141.66l3.87-8.45c0.69-1.5,2.58-2.94,4.21-3.2l71.14-11.34"/>
	</g>
	<g class="st3">
		<path class="st4" d="M88.1,218.18l7.14-1.14c1.63-0.26,4.02,0.36,5.32,1.39l10.44,8.25c1.29,1.02,3.69,1.65,5.32,1.39l85.73-13.67
			"/>
	</g>
	<g class="st3">
		<path class="st4" d="M210.28,226.33l-4.73-3.43c-1.34-0.97-3.76-1.55-5.39-1.29l-90.63,14.45c-1.63,0.26-4.06-0.32-5.39-1.29
			l-7.99-5.79"/>
	</g>
	<g class="st3">
		<path class="st4" d="M63.95,236.42l20.05-3.2c1.63-0.26,4.02,0.36,5.32,1.38l11.73,9.21c1.3,1.02,3.69,1.64,5.32,1.38l87.26-13.91
			c1.63-0.26,4.13,0.21,5.55,1.04l1.8,1.05c1.43,0.83,2.8,2.84,3.06,4.47l4.25,26.63c0.26,1.63,1.59,3.72,2.96,4.64l7.84,5.31"/>
	</g>
	<g class="st3">
		<path class="st4" d="M85.77,243.31l12.15,9.64c1.29,1.03,3.68,1.66,5.32,1.41l86.78-13.3c1.63-0.25,4.02,0.39,5.31,1.42l1.91,1.53
			c1.29,1.03,2.55,3.21,2.81,4.84l3.8,23.83c0.26,1.63,1.63,3.66,3.04,4.52l14,8.47"/>
	</g>
	<path class="st2" d="M210.65,292.39c1.19-0.27,2.41,0.24,2.99,1.25c0.52,0.89,0.48,2.08-0.1,2.89c-0.12,0.17-0.42,0.59-0.94,0.76
		c-1.21,0.38-3.07-0.78-3.22-2.39C209.24,293.43,210.58,292.44,210.65,292.39z"/>
	<g class="st3">
		<path class="st4" d="M59.04,254.81l19.34-3.08c1.63-0.26,4.01,0.38,5.29,1.42l11.36,9.21c1.28,1.04,3.66,1.68,5.29,1.42
			l84.39-13.46c1.63-0.26,4.12,0.23,5.53,1.08l1.65,1c1.41,0.85,2.78,2.88,3.04,4.51l4.25,26.63c0.26,1.63,1.58,3.74,2.93,4.68
			l7.59,5.31"/>
	</g>
	<path class="st1" d="M220.96,247.64c1.27-0.29,2.55,0.24,3.17,1.27c0.54,0.92,0.5,2.14-0.12,2.98c-0.13,0.17-0.45,0.61-1.01,0.78
		c-1.29,0.4-3.25-0.79-3.41-2.45C219.46,248.72,220.89,247.69,220.96,247.64z"/>
	<g class="st3">
		<path class="st4" d="M223.93,251.92l2.26,2.44c1.12,1.21,3.37,1.99,5,1.73l30.55-4.87"/>
	</g>
	<path class="st1" d="M233.95,260.53c1.23-0.28,2.48,0.23,3.08,1.24c0.53,0.89,0.49,2.08-0.11,2.9c-0.12,0.17-0.43,0.59-0.98,0.76
		c-1.25,0.39-3.16-0.77-3.31-2.38C232.49,261.58,233.88,260.58,233.95,260.53z"/>
	<g class="st3">
		<line class="st4" x1="237.04" y1="262.36" x2="257.81" y2="259.05"/>
	</g>
	<path class="st1" d="M160.15,267.39c1.23-0.28,2.48,0.23,3.08,1.24c0.53,0.89,0.49,2.08-0.11,2.9c-0.12,0.17-0.43,0.59-0.98,0.76
		c-1.25,0.39-3.16-0.77-3.31-2.38C158.69,268.44,160.08,267.44,160.15,267.39z"/>
	<path class="st1" d="M154.82,280.9c1.23-0.28,2.48,0.23,3.08,1.24c0.53,0.89,0.49,2.08-0.11,2.9c-0.12,0.17-0.43,0.59-0.98,0.76
		c-1.25,0.39-3.16-0.77-3.31-2.38C153.36,281.96,154.75,280.95,154.82,280.9z"/>
	<path class="st2" d="M183.92,270.24c1.23-0.28,2.48,0.23,3.08,1.24c0.53,0.89,0.49,2.08-0.11,2.9c-0.12,0.17-0.43,0.59-0.98,0.76
		c-1.25,0.39-3.16-0.77-3.31-2.38C182.45,271.29,183.84,270.29,183.92,270.24z"/>
	<path class="st2" d="M172.49,259.97c1.23-0.28,2.48,0.23,3.08,1.24c0.53,0.89,0.49,2.08-0.11,2.9c-0.12,0.17-0.43,0.59-0.98,0.76
		c-1.25,0.39-3.16-0.77-3.31-2.38C171.03,261.02,172.42,260.02,172.49,259.97z"/>
	<g class="st3">
		<line class="st4" x1="98.45" y1="274.1" x2="171.43" y2="262.46"/>
	</g>
	<g class="st3">
		<path class="st4" d="M105.34,281.19l8.83-2.98c1.56-0.53,4.18-1.17,5.8-1.43l39.49-6.3"/>
	</g>
	<g class="st3">
		<path class="st4" d="M111.58,287.83l5.75-3.5c1.41-0.86,3.89-1.77,5.52-2.03l60-9.57"/>
	</g>
	<g class="st3">
		<path class="st4" d="M119.07,294.41l4.89-4.55c1.21-1.12,3.53-2.26,5.16-2.52l24.37-3.89"/>
	</g>
</g>
<g id="dots">
</g>
<g id="lines">
</g>
</svg>
