<svg id="Layer_1" data-name="Layer 1" xmlns="http://www.w3.org/2000/svg" viewBox="0 0 97.4 116"><defs><style>.cls-1{fill:#e1bff2;}</style></defs><title>Q</title><path class="cls-1" d="M92.3,47.4c0,10.2-2,18.7-5.9,25.7a41,41,0,0,1-15.7,16,127.71,127.71,0,0,0,13.8,5.5c4.5,1.6,8.8,3.1,12.8,4.4a8.64,8.64,0,0,1,.1,1.5v1.3c0,4.9-1.3,8.6-3.9,10.8S87.6,116,83.3,116s-8.8-1.3-13.8-3.9a80.43,80.43,0,0,1-15.3-10.8l-7.4-6.5h-.7a54.63,54.63,0,0,1-18.4-3,44.12,44.12,0,0,1-14.7-9,42.06,42.06,0,0,1-9.6-15A56.49,56.49,0,0,1,0,47.3,52.94,52.94,0,0,1,3.6,27a40.77,40.77,0,0,1,9.8-14.8,38.48,38.48,0,0,1,14.5-9A49.42,49.42,0,0,1,46.1,0,51.54,51.54,0,0,1,64.3,3.1a41.1,41.1,0,0,1,14.7,9,41.64,41.64,0,0,1,9.8,14.8A56.44,56.44,0,0,1,92.3,47.4Zm-24.1,0c0-9.4-2-16.5-6.1-21.2s-9.3-7.3-16.2-7.3A20.49,20.49,0,0,0,29.7,26c-4.1,4.7-6.1,11.9-6.1,21.4s2,16.8,5.9,21.5C33.6,73.6,39,76,45.8,76S58,73.6,62,68.9C66.2,64.1,68.2,57,68.2,47.4Z"/></svg>